<svg xmlns="http://www.w3.org/2000/svg" viewBox="0 0 427.3 427.3"><defs><style>.cls-1{fill:#2969bf;}.cls-2{fill:#d7ebfd;}.cls-3{fill:#fff;}.cls-4{fill:#05182a;}</style></defs><title>資產 5</title><g id="圖層_2" data-name="圖層 2"><g id="圖層_2-2" data-name="圖層 2"><circle class="cls-1" cx="213.65" cy="213.65" r="213.65"/></g><g id="圖層_4" data-name="圖層 4"><path class="cls-2" d="M187.41,122.39c.79-6.34,1.42-13.36-2.33-18.53a12.73,12.73,0,0,0-23,6.94c-.13,3,.83,6,1.79,8.94l3.27,10Z"/><path class="cls-3" d="M82.42,290.9l-9.31-16.36H68.93a5.54,5.54,0,0,0-3.74,1.53,6.33,6.33,0,0,0-2.11,3.75l-3.7,21.12h8.16l2.88-16.37,9.31,16.37h4.18a5.55,5.55,0,0,0,3.74-1.54,6.25,6.25,0,0,0,2.11-3.74l3.75-21.12H85.3Z"/><polygon class="cls-3" points="98.64 281.59 109.3 281.59 105.84 300.94 114.05 300.94 117.46 281.59 128.12 281.59 129.37 274.54 99.89 274.54 98.64 281.59"/><path class="cls-3" d="M141.41,300.94h8.21l1.75-10q-3.72-2.4-7.28-5Z"/><path class="cls-3" d="M134.21,281.59h4.26c-1.25-1-2.49-2-3.71-3.11Z"/><path class="cls-3" d="M191.6,300.8a5.76,5.76,0,0,0,2.59-1.4,6.41,6.41,0,0,0,2-3.33C194.7,297.67,193.19,299.26,191.6,300.8Z"/><polygon class="cls-3" points="237.84 284.23 224.79 284.23 226.47 274.54 218.31 274.54 213.65 300.94 221.81 300.94 223.54 291.24 236.64 291.24 234.92 300.94 243.12 300.94 247.78 274.54 239.57 274.54 237.84 284.23"/><path class="cls-3" d="M278.26,274.54H258.63a5.56,5.56,0,0,0-3.75,1.53,6.38,6.38,0,0,0-2.11,3.75l-3.69,21.12h8.16l1.53-8.79h13.11l-1.54,8.79h8.21l3.69-21.12a4.57,4.57,0,0,0-.79-3.75A3.81,3.81,0,0,0,278.26,274.54Zm-5.14,10.56H260l.62-3.51h13.11Z"/><path class="cls-3" d="M290.6,276.07a6.34,6.34,0,0,0-2.12,3.75l-2.78,15.84a4.59,4.59,0,0,0,.79,3.74,3.83,3.83,0,0,0,3.19,1.54h24.58l1.2-7.06H294.2l2.16-12.29h21.31l1.25-7H294.34A5.54,5.54,0,0,0,290.6,276.07Z"/><polygon class="cls-3" points="354.48 274.54 344.07 274.54 335.33 284.23 331.49 284.23 333.17 274.54 325.01 274.54 320.36 300.94 328.52 300.94 330.24 291.24 334.08 291.24 339.41 300.94 349.83 300.94 342.53 287.74 354.48 274.54"/><path class="cls-3" d="M138.47,281.59c1.84,1.49,3.71,3,5.62,4.36l.78-4.36Z"/><path class="cls-3" d="M219.33,268.09c21.34-22.7,44.08-44.28,62.58-69.35,8-10.82,15.36-22.89,16.2-36.31.41-6.51-1.22-13.81-6.61-17.48-4.33-2.94-9.94-2.83-15.17-3A95.92,95.92,0,0,1,236,131.14c-5.12-2.68-10-5.83-15.42-7.89-18.94-7.25-40.09,0-58.76,7.92h1.06a33.82,33.82,0,0,0-16.34,14c-3.3,5.58-4.91,12-7.05,18.09s-5,12.29-10.13,16.3c-2.88,2.28-6.32,3.73-9.65,5.29-11,5.17-21.36,11.74-31.59,18.37a148.34,148.34,0,0,0,46.6,75.24l.7-3.94h29.47l-1.25,7H153L151.37,291A147.58,147.58,0,0,0,184.68,307q3.62-3,6.92-6.24a5.29,5.29,0,0,1-1.13.14H170.79a3.8,3.8,0,0,1-3.19-1.54,4.59,4.59,0,0,1-.8-3.74l3.75-21.12h8.16l-3.41,19.34h13.1l3.41-19.34H200l-3.74,21.12c0,.14-.08.27-.11.41.64-.7,1.3-1.4,1.91-2.11C203.6,287.61,206.32,281.94,219.33,268.09Z"/><path class="cls-2" d="M164.36,148.6c6.33-16.81-12-36.5-28.23-28.53-7.67,3.83-16.86,87.33,28,29Z"/><path d="M231.35,152.91c-3.79,3.84-6.83,19.46,5.1,11.47C238.42,160.55,238,151,231.35,152.91Z"/><path class="cls-2" d="M287.44,144l5.3,16.46c1.14,3.54,2.37,7.23,5,9.84a1.63,1.63,0,0,0,1.22.61,1.66,1.66,0,0,0,1-.61,19.79,19.79,0,0,0,3.7-4.62,13.33,13.33,0,0,0,0-11.44,23.22,23.22,0,0,0-7.62-8.88,41.07,41.07,0,0,0-4.42-2.85,4,4,0,0,0-3.18-.68c-1.05.39-1.41,2.17-.36,2.55"/><path class="cls-4" d="M274.06,120.43c5.09,14.09,19.51,22.54,27.42,35.26,8.62,13.88,8.78,31.6,16.58,46,7.25,13.36,20.76,23.18,25.11,37.74,0,0,3.18,2.88,5.3,2.48a10.6,10.6,0,0,0,5.47-3.26c5.6-5.89,6-15.1,4.14-23s-5.64-15.28-7.34-23.23c-.62-2.92-.94-6.05.14-8.83,1.27-3.3,4.29-5.59,6-8.66,2.29-4,2.18-9.1.59-13.45s-4.48-8.09-7.59-11.52c-4.11-4.52-9.65-9-15.66-7.88-2.91.52-5.56,2.31-8.51,2.32-4.05,0-7.25-3.22-10.24-6-9.55-8.76-21.52-14.32-33.28-19.75-2.83-1.3-6.78-2.34-8.56.21Z"/></g></g></svg>