<svg xmlns="http://www.w3.org/2000/svg" viewBox="0 0 299.7 208.39"><defs><style>.cls-1{fill:#d7ebfd;}.cls-2{fill:#fff;}.cls-3{fill:#05182a;}</style></defs><title>資產 6</title><g id="圖層_2" data-name="圖層 2"><g id="圖層_4" data-name="圖層 4"><path class="cls-1" d="M128,23.74c.79-6.34,1.42-13.36-2.33-18.53a13.08,13.08,0,0,0-14-4.71,13.08,13.08,0,0,0-9,11.65c-.13,3,.83,6,1.79,8.94l3.27,10Z"/><path class="cls-2" d="M23,192.26l-9.31-16.37H9.55a5.54,5.54,0,0,0-3.74,1.53,6.36,6.36,0,0,0-2.11,3.75L0,202.29H8.16L11,185.92l9.31,16.37h4.18a5.51,5.51,0,0,0,3.74-1.54A6.3,6.3,0,0,0,30.38,197l3.75-21.12H25.92Z"/><polygon class="cls-2" points="39.26 182.94 49.92 182.94 46.46 202.29 54.67 202.29 58.08 182.94 68.74 182.94 69.98 175.89 40.51 175.89 39.26 182.94"/><path class="cls-2" d="M82,202.29h8.21L92,192.34q-3.72-2.42-7.28-5Z"/><path class="cls-2" d="M74.83,182.94h4.26q-1.87-1.51-3.71-3.11Z"/><path class="cls-2" d="M132.22,202.15a5.81,5.81,0,0,0,2.59-1.4,6.41,6.41,0,0,0,2-3.33C135.32,199,133.81,200.61,132.22,202.15Z"/><polygon class="cls-2" points="178.46 185.58 165.41 185.58 167.09 175.89 158.93 175.89 154.27 202.29 162.43 202.29 164.16 192.59 177.26 192.59 175.54 202.29 183.74 202.29 188.4 175.89 180.19 175.89 178.46 185.58"/><path class="cls-2" d="M218.88,175.89H199.25a5.56,5.56,0,0,0-3.75,1.53,6.41,6.41,0,0,0-2.11,3.75l-3.69,21.12h8.16l1.53-8.79H212.5L211,202.29h8.21l3.69-21.12a4.58,4.58,0,0,0-.79-3.75A3.81,3.81,0,0,0,218.88,175.89Zm-5.14,10.56h-13.1l.62-3.51h13.11Z"/><path class="cls-2" d="M231.22,177.42a6.37,6.37,0,0,0-2.12,3.75L226.32,197a4.59,4.59,0,0,0,.79,3.74,3.8,3.8,0,0,0,3.19,1.54h24.58l1.2-7.06H234.82L237,182.94h21.31l1.25-7.05H235A5.54,5.54,0,0,0,231.22,177.42Z"/><polygon class="cls-2" points="295.1 175.89 284.69 175.89 275.95 185.58 272.11 185.58 273.79 175.89 265.63 175.89 260.98 202.29 269.14 202.29 270.86 192.59 274.7 192.59 280.03 202.29 290.45 202.29 283.15 189.09 295.1 175.89"/><path class="cls-2" d="M79.09,182.94c1.84,1.5,3.71,3,5.62,4.36l.78-4.36Z"/><path class="cls-2" d="M160,169.45c21.34-22.71,44.08-44.28,62.58-69.36,8-10.81,15.36-22.89,16.2-36.31.41-6.51-1.22-13.81-6.61-17.48-4.33-2.94-9.94-2.83-15.17-3a95.92,95.92,0,0,1-40.29-10.77c-5.12-2.68-10-5.83-15.42-7.89-18.94-7.24-40.09,0-58.76,7.92h1.06a33.76,33.76,0,0,0-16.34,14c-3.31,5.58-4.91,12-7,18.08s-5,12.29-10.13,16.3c-2.89,2.28-6.32,3.73-9.65,5.29C49.33,91.39,39,98,28.78,104.59a148.3,148.3,0,0,0,46.6,75.24l.7-3.94h29.47l-1.25,7.05H93.65L92,192.34a148,148,0,0,0,33.31,16q3.61-3,6.92-6.24a5.38,5.38,0,0,1-1.13.14H111.41a3.78,3.78,0,0,1-3.19-1.54,4.59,4.59,0,0,1-.8-3.74l3.75-21.12h8.16l-3.41,19.34H129l3.41-19.34h8.21L136.9,197c0,.14-.08.27-.11.41.64-.7,1.29-1.39,1.91-2.11C144.22,189,146.94,183.29,160,169.45Z"/><path class="cls-1" d="M105,50c6.33-16.82-12-36.51-28.23-28.54-7.67,3.83-16.86,87.34,28,29Z"/><path d="M172,54.27c-3.79,3.83-6.83,19.45,5.1,11.46C179,61.9,178.59,52.39,172,54.27Z"/><path class="cls-1" d="M228.06,45.35l5.3,16.46c1.14,3.54,2.37,7.23,5,9.84a1.68,1.68,0,0,0,1.22.62,1.73,1.73,0,0,0,1-.62,19.79,19.79,0,0,0,3.7-4.62,13.33,13.33,0,0,0,0-11.44,23.22,23.22,0,0,0-7.62-8.88,40.23,40.23,0,0,0-4.43-2.85,4,4,0,0,0-3.17-.68c-1,.39-1.41,2.18-.36,2.55"/><path class="cls-3" d="M214.67,21.78c5.1,14.09,19.52,22.54,27.43,35.26,8.62,13.89,8.78,31.6,16.58,46,7.24,13.35,20.76,23.17,25.1,37.73,0,0,3.19,2.88,5.31,2.48a10.6,10.6,0,0,0,5.47-3.26c5.6-5.88,6-15.09,4.14-23s-5.64-15.29-7.34-23.24c-.62-2.92-.94-6,.14-8.83,1.27-3.3,4.29-5.59,6-8.66,2.29-4,2.18-9.09.59-13.44s-4.48-8.09-7.59-11.52c-4.11-4.53-9.65-9-15.66-7.89-2.91.52-5.56,2.31-8.51,2.32-4.05,0-7.25-3.22-10.24-6C246.57,31,234.6,25.42,222.84,20c-2.83-1.31-6.78-2.35-8.56.21Z"/></g></g></svg>